<svg xmlns="http://www.w3.org/2000/svg" xmlns:xlink="http://www.w3.org/1999/xlink" width="500" zoomAndPan="magnify" viewBox="0 0 375 112.499997" height="150" preserveAspectRatio="xMidYMid meet" version="1.0"><defs><filter x="0%" y="0%" width="100%" height="100%" id="190fc7b5b8"><feColorMatrix values="0 0 0 0 1 0 0 0 0 1 0 0 0 0 1 0 0 0 1 0" color-interpolation-filters="sRGB"/></filter><g/><clipPath id="1cd89ef79e"><path d="M 35.519531 26 L 96 26 L 96 85.5625 L 35.519531 85.5625 Z M 35.519531 26 " clip-rule="nonzero"/></clipPath><mask id="d3bc749bd0"><g filter="url(#190fc7b5b8)"><rect x="-37.5" width="450" fill="#000000" y="-11.25" height="134.999996" fill-opacity="0.7"/></g></mask><clipPath id="d7e8ef4993"><path d="M 0.519531 0.28125 L 60.210938 0.28125 L 60.210938 59.5625 L 0.519531 59.5625 Z M 0.519531 0.28125 " clip-rule="nonzero"/></clipPath><clipPath id="4c8b31815f"><rect x="0" width="61" y="0" height="60"/></clipPath><clipPath id="e12cc8a298"><path d="M 51 26 L 111.679688 26 L 111.679688 85.5625 L 51 85.5625 Z M 51 26 " clip-rule="nonzero"/></clipPath><mask id="b50dd168eb"><g filter="url(#190fc7b5b8)"><rect x="-37.5" width="450" fill="#000000" y="-11.25" height="134.999996" fill-opacity="0.7"/></g></mask><clipPath id="ceb3ef97e5"><path d="M 1 0.0429688 L 60.679688 0.0429688 L 60.679688 59.5625 L 1 59.5625 Z M 1 0.0429688 " clip-rule="nonzero"/></clipPath><clipPath id="142d9fd81c"><rect x="0" width="61" y="0" height="60"/></clipPath></defs><g clip-path="url(#1cd89ef79e)"><g mask="url(#d3bc749bd0)"><g transform="matrix(1, 0, 0, 1, 35, 26)"><g clip-path="url(#4c8b31815f)"><g clip-path="url(#d7e8ef4993)"><path fill="#085fce" d="M 60.027344 38.480469 C 60.027344 44.207031 57.796875 49.585938 53.746094 53.636719 C 49.570312 57.8125 44.082031 59.902344 38.59375 59.902344 C 33.105469 59.902344 27.617188 57.8125 23.4375 53.636719 L 6.800781 37 C 2.753906 32.953125 0.523438 27.570312 0.523438 21.84375 C 0.523438 16.121094 2.753906 10.738281 6.800781 6.691406 C 15.160156 -1.667969 28.753906 -1.667969 37.113281 6.691406 L 53.75 23.324219 C 57.796875 27.375 60.027344 32.757812 60.027344 38.480469 Z M 60.027344 38.480469 " fill-opacity="1" fill-rule="nonzero"/></g></g></g></g></g><g clip-path="url(#e12cc8a298)"><g mask="url(#b50dd168eb)"><g transform="matrix(1, 0, 0, 1, 51, 26)"><g clip-path="url(#142d9fd81c)"><g clip-path="url(#ceb3ef97e5)"><path fill="#3de2ff" d="M 60.777344 21.84375 C 60.777344 27.570312 58.546875 32.953125 54.5 37 L 37.863281 53.636719 C 33.6875 57.8125 28.199219 59.902344 22.710938 59.902344 C 17.222656 59.902344 11.730469 57.8125 7.554688 53.636719 C 3.507812 49.585938 1.277344 44.207031 1.277344 38.480469 C 1.277344 32.757812 3.507812 27.375 7.554688 23.324219 L 24.191406 6.691406 C 32.546875 -1.667969 46.144531 -1.667969 54.5 6.691406 C 58.546875 10.738281 60.777344 16.121094 60.777344 21.84375 Z M 60.777344 21.84375 " fill-opacity="1" fill-rule="nonzero"/></g></g></g></g></g><g fill="#ffffff" fill-opacity="1"><g transform="translate(123.923983, 75.430853)"><g><path d="M 17.703125 0.671875 C 14.578125 0.671875 11.550781 0.25 8.625 -0.59375 C 5.695312 -1.4375 3.347656 -2.539062 1.578125 -3.90625 L 4.6875 -10.796875 C 6.382812 -9.554688 8.398438 -8.554688 10.734375 -7.796875 C 13.078125 -7.046875 15.421875 -6.671875 17.765625 -6.671875 C 20.359375 -6.671875 22.273438 -7.054688 23.515625 -7.828125 C 24.765625 -8.609375 25.390625 -9.640625 25.390625 -10.921875 C 25.390625 -11.859375 25.019531 -12.640625 24.28125 -13.265625 C 23.550781 -13.890625 22.609375 -14.390625 21.453125 -14.765625 C 20.304688 -15.140625 18.753906 -15.550781 16.796875 -16 C 13.785156 -16.71875 11.316406 -17.4375 9.390625 -18.15625 C 7.460938 -18.875 5.8125 -20.023438 4.4375 -21.609375 C 3.0625 -23.191406 2.375 -25.300781 2.375 -27.9375 C 2.375 -30.238281 2.992188 -32.320312 4.234375 -34.1875 C 5.484375 -36.050781 7.359375 -37.53125 9.859375 -38.625 C 12.367188 -39.71875 15.4375 -40.265625 19.0625 -40.265625 C 21.582031 -40.265625 24.050781 -39.960938 26.46875 -39.359375 C 28.882812 -38.765625 31 -37.898438 32.8125 -36.765625 L 29.984375 -29.8125 C 26.316406 -31.882812 22.65625 -32.921875 19 -32.921875 C 16.4375 -32.921875 14.539062 -32.503906 13.3125 -31.671875 C 12.09375 -30.847656 11.484375 -29.753906 11.484375 -28.390625 C 11.484375 -27.035156 12.1875 -26.023438 13.59375 -25.359375 C 15.007812 -24.703125 17.171875 -24.054688 20.078125 -23.421875 C 23.097656 -22.703125 25.566406 -21.984375 27.484375 -21.265625 C 29.410156 -20.546875 31.0625 -19.410156 32.4375 -17.859375 C 33.8125 -16.316406 34.5 -14.226562 34.5 -11.59375 C 34.5 -9.332031 33.867188 -7.269531 32.609375 -5.40625 C 31.347656 -3.539062 29.453125 -2.0625 26.921875 -0.96875 C 24.398438 0.125 21.328125 0.671875 17.703125 0.671875 Z M 17.703125 0.671875 "/></g></g></g><g fill="#ffffff" fill-opacity="1"><g transform="translate(158.872046, 75.430853)"><g><path d="M 16.34375 -30.890625 C 21.0625 -30.890625 24.679688 -29.765625 27.203125 -27.515625 C 29.734375 -25.273438 31 -21.890625 31 -17.359375 L 31 0 L 22.734375 0 L 22.734375 -3.796875 C 21.078125 -0.960938 17.988281 0.453125 13.46875 0.453125 C 11.125 0.453125 9.09375 0.0546875 7.375 -0.734375 C 5.664062 -1.523438 4.359375 -2.617188 3.453125 -4.015625 C 2.546875 -5.410156 2.09375 -6.992188 2.09375 -8.765625 C 2.09375 -11.597656 3.15625 -13.820312 5.28125 -15.4375 C 7.414062 -17.0625 10.707031 -17.875 15.15625 -17.875 L 22.171875 -17.875 C 22.171875 -19.800781 21.585938 -21.28125 20.421875 -22.3125 C 19.253906 -23.351562 17.5 -23.875 15.15625 -23.875 C 13.53125 -23.875 11.9375 -23.617188 10.375 -23.109375 C 8.8125 -22.597656 7.484375 -21.910156 6.390625 -21.046875 L 3.21875 -27.203125 C 4.882812 -28.367188 6.875 -29.273438 9.1875 -29.921875 C 11.507812 -30.566406 13.894531 -30.890625 16.34375 -30.890625 Z M 15.671875 -5.484375 C 17.179688 -5.484375 18.519531 -5.832031 19.6875 -6.53125 C 20.851562 -7.226562 21.679688 -8.253906 22.171875 -9.609375 L 22.171875 -12.71875 L 16.125 -12.71875 C 12.5 -12.71875 10.6875 -11.53125 10.6875 -9.15625 C 10.6875 -8.03125 11.128906 -7.132812 12.015625 -6.46875 C 12.898438 -5.8125 14.117188 -5.484375 15.671875 -5.484375 Z M 15.671875 -5.484375 "/></g></g></g><g fill="#ffffff" fill-opacity="1"><g transform="translate(192.632554, 75.430853)"><g><path d="M 4.078125 -41.96875 L 12.890625 -41.96875 L 12.890625 0 L 4.078125 0 Z M 4.078125 -41.96875 "/></g></g></g><g fill="#ffffff" fill-opacity="1"><g transform="translate(208.523067, 75.430853)"><g><path d="M 34.734375 -30.4375 L 34.734375 0 L 26.359375 0 L 26.359375 -3.625 C 25.191406 -2.300781 23.796875 -1.289062 22.171875 -0.59375 C 20.546875 0.101562 18.789062 0.453125 16.90625 0.453125 C 12.914062 0.453125 9.75 -0.695312 7.40625 -3 C 5.070312 -5.300781 3.90625 -8.710938 3.90625 -13.234375 L 3.90625 -30.4375 L 12.71875 -30.4375 L 12.71875 -14.53125 C 12.71875 -9.632812 14.773438 -7.1875 18.890625 -7.1875 C 21.003906 -7.1875 22.703125 -7.875 23.984375 -9.25 C 25.265625 -10.625 25.90625 -12.671875 25.90625 -15.390625 L 25.90625 -30.4375 Z M 34.734375 -30.4375 "/></g></g></g><g fill="#ffffff" fill-opacity="1"><g transform="translate(246.242112, 75.430853)"><g><path d="M 23.703125 -1.46875 C 22.835938 -0.832031 21.769531 -0.351562 20.5 -0.03125 C 19.238281 0.289062 17.910156 0.453125 16.515625 0.453125 C 12.898438 0.453125 10.097656 -0.46875 8.109375 -2.3125 C 6.128906 -4.164062 5.140625 -6.882812 5.140625 -10.46875 L 5.140625 -22.96875 L 0.453125 -22.96875 L 0.453125 -29.75 L 5.140625 -29.75 L 5.140625 -37.15625 L 13.96875 -37.15625 L 13.96875 -29.75 L 21.546875 -29.75 L 21.546875 -22.96875 L 13.96875 -22.96875 L 13.96875 -10.578125 C 13.96875 -9.296875 14.296875 -8.304688 14.953125 -7.609375 C 15.617188 -6.910156 16.554688 -6.5625 17.765625 -6.5625 C 19.160156 -6.5625 20.347656 -6.9375 21.328125 -7.6875 Z M 23.703125 -1.46875 "/></g></g></g><g fill="#ffffff" fill-opacity="1"><g transform="translate(269.710397, 75.430853)"><g><path d="M 4.078125 -30.4375 L 12.890625 -30.4375 L 12.890625 0 L 4.078125 0 Z M 8.484375 -34.671875 C 6.859375 -34.671875 5.535156 -35.140625 4.515625 -36.078125 C 3.503906 -37.023438 3 -38.195312 3 -39.59375 C 3 -40.988281 3.503906 -42.15625 4.515625 -43.09375 C 5.535156 -44.039062 6.859375 -44.515625 8.484375 -44.515625 C 10.109375 -44.515625 11.425781 -44.0625 12.4375 -43.15625 C 13.457031 -42.25 13.96875 -41.117188 13.96875 -39.765625 C 13.96875 -38.296875 13.457031 -37.078125 12.4375 -36.109375 C 11.425781 -35.148438 10.109375 -34.671875 8.484375 -34.671875 Z M 8.484375 -34.671875 "/></g></g></g><g fill="#ffffff" fill-opacity="1"><g transform="translate(285.600903, 75.430853)"><g><path d="M 23.421875 0 L 16.75 -9.328125 L 9.84375 0 L 0.21875 0 L 11.9375 -15.328125 L 0.625 -30.4375 L 10.515625 -30.4375 L 16.96875 -21.546875 L 23.59375 -30.4375 L 32.96875 -30.4375 L 21.65625 -15.546875 L 33.421875 0 Z M 23.421875 0 "/></g></g></g></svg>