<svg xmlns="http://www.w3.org/2000/svg" xmlns:xlink="http://www.w3.org/1999/xlink" width="500" zoomAndPan="magnify" viewBox="0 0 375 374.999991" height="500" preserveAspectRatio="xMidYMid meet" version="1.0"><defs><filter x="0%" y="0%" width="100%" height="100%" id="853b30c93d"><feColorMatrix values="0 0 0 0 1 0 0 0 0 1 0 0 0 0 1 0 0 0 1 0" color-interpolation-filters="sRGB"/></filter><clipPath id="6f5c2b1dc3"><path d="M 4.96875 49 L 291 49 L 291 334.898438 L 4.96875 334.898438 Z M 4.96875 49 " clip-rule="nonzero"/></clipPath><mask id="8547b8d388"><g filter="url(#853b30c93d)"><rect x="-37.5" width="450" fill="#000000" y="-37.499999" height="449.999989" fill-opacity="0.7"/></g></mask><clipPath id="2dc73a6ece"><path d="M 1 1 L 286 1 L 286 285.898438 L 1 285.898438 Z M 1 1 " clip-rule="nonzero"/></clipPath><clipPath id="3b30b9edaa"><rect x="0" width="287" y="0" height="286"/></clipPath><clipPath id="155bfc1237"><path d="M 84 49 L 370.21875 49 L 370.21875 334.898438 L 84 334.898438 Z M 84 49 " clip-rule="nonzero"/></clipPath><mask id="0674e02049"><g filter="url(#853b30c93d)"><rect x="-37.5" width="450" fill="#000000" y="-37.499999" height="449.999989" fill-opacity="0.7"/></g></mask><clipPath id="f849bb7d8a"><path d="M 1 1 L 286 1 L 286 285.898438 L 1 285.898438 Z M 1 1 " clip-rule="nonzero"/></clipPath><clipPath id="0d4300211f"><rect x="0" width="287" y="0" height="286"/></clipPath></defs><g clip-path="url(#6f5c2b1dc3)"><g mask="url(#8547b8d388)"><g transform="matrix(1, 0, 0, 1, 4, 49)"><g clip-path="url(#3b30b9edaa)"><g clip-path="url(#2dc73a6ece)"><path fill="#085fce" d="M 285.804688 183.316406 C 285.804688 210.71875 275.132812 236.480469 255.757812 255.859375 C 235.757812 275.859375 209.488281 285.859375 183.21875 285.859375 C 156.945312 285.859375 130.675781 275.859375 110.675781 255.859375 L 31.046875 176.230469 C 11.671875 156.855469 1 131.089844 1 103.691406 C 1 76.289062 11.671875 50.527344 31.046875 31.148438 C 71.046875 -8.851562 136.132812 -8.851562 176.128906 31.148438 L 255.757812 110.777344 C 275.136719 130.152344 285.804688 155.914062 285.804688 183.316406 Z M 285.804688 183.316406 " fill-opacity="1" fill-rule="nonzero"/></g></g></g></g></g><g clip-path="url(#155bfc1237)"><g mask="url(#0674e02049)"><g transform="matrix(1, 0, 0, 1, 84, 49)"><g clip-path="url(#0d4300211f)"><g clip-path="url(#f849bb7d8a)"><path fill="#3de2ff" d="M 285.988281 103.691406 C 285.988281 131.09375 275.320312 156.855469 255.941406 176.230469 L 176.3125 255.859375 C 156.316406 275.859375 130.042969 285.859375 103.773438 285.859375 C 77.503906 285.859375 51.230469 275.859375 31.234375 255.859375 C 11.855469 236.480469 1.1875 210.71875 1.1875 183.316406 C 1.1875 155.914062 11.855469 130.152344 31.234375 110.777344 L 110.859375 31.148438 C 150.859375 -8.851562 215.945312 -8.851562 255.941406 31.148438 C 275.320312 50.523438 285.988281 76.289062 285.988281 103.691406 Z M 285.988281 103.691406 " fill-opacity="1" fill-rule="nonzero"/></g></g></g></g></g></svg>